<svg width="32" height="32" viewBox="0 0 32 32" fill="none" xmlns="http://www.w3.org/2000/svg">
  <!-- Background circle -->
  <circle cx="16" cy="16" r="16" fill="#3B82F6"/>
  
  <!-- Document/Page -->
  <rect x="6" y="8" width="12" height="16" rx="1" fill="white"/>
  <rect x="8" y="11" width="8" height="1" fill="#E5E7EB"/>
  <rect x="8" y="13" width="6" height="1" fill="#E5E7EB"/>
  <rect x="8" y="15" width="7" height="1" fill="#E5E7EB"/>
  <rect x="8" y="17" width="5" height="1" fill="#E5E7EB"/>
  
  <!-- Rocket -->
  <path d="M20 6L24 12L22 14L20 12L18 14L16 12L20 6Z" fill="#EF4444"/>
  <ellipse cx="20" cy="13" rx="1" ry="2" fill="#F97316"/>
  
  <!-- Rocket flames -->
  <path d="M19 14L19.5 16L20 14L20.5 16L21 14" stroke="#FCD34D" stroke-width="0.5" fill="none"/>
  
  <!-- Launch trail -->
  <circle cx="22" cy="10" r="0.5" fill="#FCD34D" opacity="0.6"/>
  <circle cx="24" cy="8" r="0.3" fill="#FCD34D" opacity="0.4"/>
  <circle cx="25" cy="6" r="0.2" fill="#FCD34D" opacity="0.3"/>
</svg> 